<?xml version="1.0" standalone="no"?>
<!DOCTYPE svg PUBLIC "-//W3C//DTD SVG 20010904//EN"
 "http://www.w3.org/TR/2001/REC-SVG-20010904/DTD/svg10.dtd">
<svg version="1.0" xmlns="http://www.w3.org/2000/svg"
 width="1000.000000pt" height="1000.000000pt" viewBox="0 0 1000.000000 1000.000000"
 preserveAspectRatio="xMidYMid meet">
<metadata>
Created by potrace 1.14, written by Peter Selinger 2001-2017
</metadata>
<g transform="translate(0.000000,1000.000000) scale(0.100000,-0.100000)"
fill="#000000" stroke="none">
<path d="M0 5000 l0 -5000 5000 0 5000 0 0 5000 0 5000 -5000 0 -5000 0 0
-5000z m2745 2161 l2260 -682 2274 686 c1651 498 2276 683 2282 674 14 -24 20
-117 10 -177 -29 -178 -136 -296 -321 -352 -52 -16 -761 -230 -1575 -476 -814
-245 -1518 -463 -1565 -483 -330 -142 -584 -384 -740 -706 -61 -124 -108 -265
-131 -395 -23 -123 -18 -422 9 -548 117 -544 535 -975 1076 -1112 744 -188
1499 225 1741 954 58 175 70 250 70 456 0 141 -5 205 -19 268 -28 132 -65 251
-102 331 -19 41 -32 76 -30 79 12 11 189 -182 241 -261 147 -226 222 -468 232
-749 9 -251 -27 -415 -129 -596 -276 -484 -734 -818 -1278 -931 -477 -99 -987
1 -1405 276 -238 157 -462 393 -595 627 l-43 75 -59 -97 c-282 -464 -739 -781
-1273 -886 -536 -105 -1133 51 -1565 410 -221 182 -447 494 -516 709 -118 371
-26 877 219 1208 55 74 192 217 208 217 4 0 -15 -55 -43 -122 -27 -68 -60
-167 -73 -221 -116 -477 22 -982 364 -1340 154 -160 306 -264 501 -344 544
-220 1143 -107 1562 296 126 120 211 233 287 380 114 222 150 368 158 628 6
217 -8 327 -67 504 -76 231 -184 405 -359 579 -131 131 -224 198 -379 275
-132 66 -31 33 -1792 565 -806 244 -1487 454 -1513 467 -140 70 -228 217 -229
379 0 98 7 128 30 121 10 -2 1034 -311 2277 -686z m5989 -438 c34 -209 -66
-408 -243 -484 -24 -11 -197 -65 -385 -120 -371 -109 -767 -229 -778 -235 -3
-2 42 -52 101 -112 153 -152 232 -286 288 -488 25 -91 28 -114 28 -274 0 -160
-3 -183 -28 -275 -106 -385 -396 -670 -790 -777 -70 -20 -106 -23 -252 -23
-200 0 -290 19 -443 90 -317 150 -507 382 -608 745 -28 99 -25 366 4 473 58
210 160 384 310 529 148 143 264 209 492 282 163 52 2282 704 2291 705 4 1 9
-16 13 -36z m-6251 -339 c656 -201 1225 -381 1264 -399 426 -196 688 -641 642
-1090 -17 -165 -43 -254 -115 -395 -108 -210 -276 -371 -498 -476 -175 -82
-380 -117 -557 -95 -493 61 -856 394 -954 873 -20 97 -23 282 -6 378 26 145
96 315 183 444 42 62 172 199 217 229 14 9 23 19 20 21 -3 4 -418 129 -992
300 -202 60 -241 80 -316 161 -66 72 -104 162 -109 261 -5 91 3 154 19 154 6
0 547 -165 1202 -366z m2610 -3188 c63 -62 174 -146 279 -211 l77 -47 -20 -40
c-36 -71 -411 -743 -419 -751 -6 -7 -431 743 -442 780 -2 6 51 47 117 91 147
97 248 182 289 243 l31 45 18 -29 c10 -16 42 -53 70 -81z"/>
<path d="M6590 5543 c-218 -36 -400 -213 -446 -435 -49 -232 75 -488 287 -592
144 -71 289 -81 432 -31 136 47 250 149 311 278 70 147 74 283 15 442 l-22 60
-14 -39 c-20 -61 -61 -106 -117 -132 -126 -59 -266 -2 -315 129 -17 43 -13
127 8 172 19 43 74 101 103 111 34 10 18 22 -45 33 -62 11 -147 13 -197 4z"/>
<path d="M3240 5544 c-237 -46 -419 -232 -452 -463 -41 -282 131 -546 402
-616 81 -21 240 -16 315 10 287 99 436 408 340 705 l-27 85 -23 -50 c-28 -63
-63 -101 -117 -125 -86 -39 -187 -21 -254 45 -105 106 -89 278 33 355 l46 29
-29 12 c-31 12 -193 21 -234 13z"/>
</g>
</svg>
